<svg width="14" height="16" viewBox="0 0 14 16" fill="none" xmlns="http://www.w3.org/2000/svg">
<path d="M14 11.0678V12.2105C14 12.896 13.7037 13.4821 13.2922 13.9427C12.8854 14.3992 12.3332 14.7714 11.7118 15.0661C10.4658 15.6556 8.79978 16 7 16C5.20022 16 3.53422 15.6564 2.28822 15.0661C1.66678 14.7714 1.11456 14.3992 0.707778 13.9427C0.330556 13.5217 0.0505555 12.9928 0.00622214 12.3798L0 12.2105V11.0678C0.361667 11.2901 0.748222 11.4872 1.162 11.6531C2.74089 12.2855 4.80589 12.6383 7 12.6383C9.19411 12.6383 11.2591 12.2855 12.838 11.6531C13.1483 11.5284 13.4431 11.3869 13.7239 11.2295L14 11.0678ZM0 6.43621C0.361667 6.65853 0.748222 6.85558 1.162 7.02147C2.74089 7.6539 4.80589 8.00674 7 8.00674C9.19411 8.00674 11.2591 7.6539 12.838 7.02147C13.2394 6.86105 13.6281 6.66531 14 6.43621V9.05095C13.4835 9.48257 12.9098 9.82723 12.2982 10.0733C10.9332 10.6206 9.05956 10.9549 7 10.9549C4.94122 10.9549 3.06756 10.6206 1.70178 10.0733C1.0902 9.82723 0.516469 9.48257 0 9.05095V6.43621ZM7 0C8.79978 0 10.4658 0.343579 11.7118 0.933895C12.3332 1.22863 12.8854 1.60084 13.2922 2.05726C13.6694 2.47832 13.9494 3.00716 13.9938 3.62021L14 3.78947V4.41937C13.4835 4.85101 12.9098 5.19567 12.2982 5.44168C10.9332 5.98905 9.05956 6.32337 7 6.32337C4.94122 6.32337 3.06756 5.98905 1.70178 5.44168C1.17587 5.23048 0.677757 4.94568 0.220111 4.59453L0 4.41937V3.78947C0 3.104 0.296333 2.51789 0.707778 2.05726C1.11456 1.60084 1.66678 1.22863 2.28822 0.933895C3.53422 0.344421 5.20022 0 7 0Z" fill="#D9D9D9"/>
</svg>
