<svg xmlns="http://www.w3.org/2000/svg" width="16" height="16" viewBox="0 0 16 16" fill="none">
    <path d="M10.6667 2.66671H12.6667C13.0203 2.66671 13.3594 2.80718 13.6095 3.05723C13.8595 3.30728 14 3.64642 14 4.00004V4.66671M10.6667 13.3334H12.6667C13.0203 13.3334 13.3594 13.1929 13.6095 12.9428C13.8595 12.6928 14 12.3537 14 12V11.3334M6.00067 8.00004H6M10.6667 8.00004H14M14 8.00004L12.6667 6.66671M14 8.00004L12.6667 9.33337M2.95 12.952L6.95 14.152C7.14912 14.2118 7.35946 14.2242 7.56422 14.1882C7.76898 14.1522 7.96248 14.0688 8.12927 13.9447C8.29607 13.8206 8.43153 13.6592 8.52483 13.4734C8.61814 13.2876 8.66671 13.0826 8.66667 12.8747V3.12537C8.66671 2.91747 8.61814 2.71245 8.52483 2.52666C8.43153 2.34088 8.29607 2.17949 8.12927 2.05538C7.96248 1.93128 7.76898 1.84789 7.56422 1.81189C7.35946 1.77589 7.14912 1.78827 6.95 1.84804L2.95 3.04804C2.67535 3.13048 2.43459 3.29928 2.26346 3.52938C2.09233 3.75947 1.99994 4.03861 2 4.32537V11.6747C1.99994 11.9615 2.09233 12.2406 2.26346 12.4707C2.43459 12.7008 2.67535 12.8696 2.95 12.952Z" stroke="#35415A" stroke-width="1.33333" stroke-linecap="round" stroke-linejoin="round"/>
</svg>
