<svg xmlns="http://www.w3.org/2000/svg" width="34" height="34" viewBox="0 0 34 34" fill="none">
    <path d="M27.8 19.4C27.4817 19.4 27.1765 19.5264 26.9515 19.7515C26.7264 19.9765 26.6 20.2817 26.6 20.6V25.4C26.6 25.7183 26.4736 26.0235 26.2485 26.2485C26.0235 26.4736 25.7183 26.6 25.4 26.6H8.6C8.28174 26.6 7.97652 26.4736 7.75147 26.2485C7.52643 26.0235 7.4 25.7183 7.4 25.4V20.6C7.4 20.2817 7.27357 19.9765 7.04853 19.7515C6.82348 19.5264 6.51826 19.4 6.2 19.4C5.88174 19.4 5.57652 19.5264 5.35147 19.7515C5.12643 19.9765 5 20.2817 5 20.6V25.4C5 26.3548 5.37928 27.2705 6.05442 27.9456C6.72955 28.6207 7.64522 29 8.6 29H25.4C26.3548 29 27.2705 28.6207 27.9456 27.9456C28.6207 27.2705 29 26.3548 29 25.4V20.6C29 20.2817 28.8736 19.9765 28.6485 19.7515C28.4235 19.5264 28.1183 19.4 27.8 19.4ZM16.148 21.452C16.2621 21.5612 16.3967 21.6469 16.544 21.704C16.6876 21.7675 16.843 21.8003 17 21.8003C17.157 21.8003 17.3124 21.7675 17.456 21.704C17.6033 21.6469 17.7379 21.5612 17.852 21.452L22.652 16.652C22.878 16.426 23.0049 16.1196 23.0049 15.8C23.0049 15.4804 22.878 15.174 22.652 14.948C22.426 14.722 22.1196 14.5951 21.8 14.5951C21.4804 14.5951 21.174 14.722 20.948 14.948L18.2 17.708V6.2C18.2 5.88174 18.0736 5.57652 17.8485 5.35147C17.6235 5.12643 17.3183 5 17 5C16.6817 5 16.3765 5.12643 16.1515 5.35147C15.9264 5.57652 15.8 5.88174 15.8 6.2V17.708L13.052 14.948C12.9401 14.8361 12.8073 14.7474 12.6611 14.6868C12.5149 14.6263 12.3582 14.5951 12.2 14.5951C12.0418 14.5951 11.8851 14.6263 11.7389 14.6868C11.5927 14.7474 11.4599 14.8361 11.348 14.948C11.2361 15.0599 11.1474 15.1927 11.0868 15.3389C11.0263 15.4851 10.9951 15.6418 10.9951 15.8C10.9951 15.9582 11.0263 16.1149 11.0868 16.2611C11.1474 16.4073 11.2361 16.5401 11.348 16.652L16.148 21.452Z" fill="#37475F"/>
</svg>
