<svg xmlns="http://www.w3.org/2000/svg" width="20" height="12" viewBox="0 0 20 12" fill="none">
    <path d="M19 2.11765H1C0.734784 2.11765 0.48043 2.00609 0.292893 1.80753C0.105357 1.60896 0 1.33964 0 1.05882C0 0.778006 0.105357 0.50869 0.292893 0.310122C0.48043 0.111554 0.734784 0 1 0H19C19.2652 0 19.5196 0.111554 19.7071 0.310122C19.8946 0.50869 20 0.778006 20 1.05882C20 1.33964 19.8946 1.60896 19.7071 1.80753C19.5196 2.00609 19.2652 2.11765 19 2.11765ZM15.6667 7.05882H4.33333C4.06812 7.05882 3.81376 6.94727 3.62623 6.7487C3.43869 6.55013 3.33333 6.28082 3.33333 6C3.33333 5.71918 3.43869 5.44987 3.62623 5.2513C3.81376 5.05273 4.06812 4.94118 4.33333 4.94118H15.6667C15.9319 4.94118 16.1862 5.05273 16.3738 5.2513C16.5613 5.44987 16.6667 5.71918 16.6667 6C16.6667 6.28082 16.5613 6.55013 16.3738 6.7487C16.1862 6.94727 15.9319 7.05882 15.6667 7.05882ZM11.6667 12H8.33333C8.06812 12 7.81376 11.8884 7.62623 11.6899C7.43869 11.4913 7.33333 11.222 7.33333 10.9412C7.33333 10.6604 7.43869 10.391 7.62623 10.1925C7.81376 9.99391 8.06812 9.88235 8.33333 9.88235H11.6667C11.9319 9.88235 12.1862 9.99391 12.3738 10.1925C12.5613 10.391 12.6667 10.6604 12.6667 10.9412C12.6667 11.222 12.5613 11.4913 12.3738 11.6899C12.1862 11.8884 11.9319 12 11.6667 12Z" fill="white"/>
</svg>
