<svg xmlns="http://www.w3.org/2000/svg" width="42" height="42" viewBox="0 0 42 42" fill="none">
    <path d="M20.6325 14.07C19.9613 14.1474 19.4548 14.7156 19.4548 15.3913C19.4548 16.0669 19.9613 16.6351 20.6325 16.7125C20.9851 16.7174 21.3245 16.5783 21.5722 16.3272C21.8199 16.0762 21.9546 15.735 21.945 15.3825C21.9356 14.6616 21.3534 14.0794 20.6325 14.07Z" fill="#ced2d9"/>
    <path d="M20.6325 19.11C20.283 19.1052 19.9464 19.242 19.6992 19.4892C19.452 19.7364 19.3152 20.073 19.32 20.4225V25.8825C19.32 26.6074 19.9076 27.195 20.6325 27.195C21.3574 27.195 21.945 26.6074 21.945 25.8825V20.4575C21.9544 20.1034 21.8203 19.7605 21.5732 19.5067C21.326 19.2529 20.9867 19.1099 20.6325 19.11Z" fill="#ced2d9"/>
    <path fill-rule="evenodd" clip-rule="evenodd" d="M20.6325 3.5C11.1745 3.50965 3.50965 11.1745 3.5 20.6325C3.5 30.0945 11.1705 37.765 20.6325 37.765C30.0945 37.765 37.765 30.0945 37.765 20.6325C37.7554 11.1745 30.0905 3.50965 20.6325 3.5ZM20.6325 35.14C12.6202 35.14 6.125 28.6448 6.125 20.6325C6.125 12.6202 12.6202 6.125 20.6325 6.125C28.6448 6.125 35.14 12.6202 35.14 20.6325C35.1304 28.6408 28.6408 35.1304 20.6325 35.14Z" fill="#ced2d9"/>
</svg>
