<svg xmlns="http://www.w3.org/2000/svg" width="11" height="10" viewBox="0 0 11 10" fill="none">
    <g clip-path="url(#clip0_826_416)">
        <path fill-rule="evenodd" clip-rule="evenodd" d="M3.92883 2.85769H2.35583C1.92225 2.85769 1.57025 3.17686 1.57025 3.57186V7.85769C1.57025 8.25186 1.92225 8.57186 2.35583 8.57186H7.07025C7.50475 8.57186 7.85583 8.25186 7.85583 7.85769V6.56019C7.85583 6.16602 8.20783 5.84602 8.64233 5.84602C9.07592 5.84602 9.42792 6.16602 9.42792 6.56019V7.85852C9.42792 9.04186 8.37192 10.001 7.07025 10.001H2.35675C1.05508 10.0002 0 9.04102 0 7.85769V3.57186C0 2.38852 1.05508 1.42852 2.35675 1.42852H3.92883C4.36242 1.42852 4.71442 1.74852 4.71442 2.14269C4.71442 2.53769 4.36242 2.85769 3.92883 2.85769ZM7.53133 2.14269H7.07117C6.63758 2.14269 6.28558 1.82352 6.28558 1.42852C6.28558 1.03436 6.63758 0.714355 7.07117 0.714355H9.42883C9.86242 0.714355 10.2144 1.03436 10.2144 1.42852V3.57186C10.2144 3.96602 9.86242 4.28602 9.42883 4.28602C8.99433 4.28602 8.64325 3.96602 8.64325 3.57186V3.15352L5.26992 6.22019C4.96283 6.49852 4.466 6.49852 4.15892 6.22019C3.85183 5.94019 3.85183 5.48852 4.15892 5.20936L7.53225 2.14269H7.53133Z" fill="#5B85CE"/>
    </g>
    <defs>
        <clipPath id="clip0_826_416">
            <rect width="11" height="10" fill="white"/>
        </clipPath>
    </defs>
</svg>
