<svg xmlns="http://www.w3.org/2000/svg" width="20" height="20" viewBox="0 0 20 20" fill="none">
    <path d="M10.8334 15.8335C10.8334 15.5502 10.8667 15.2752 10.9084 15.0002H3.33341V6.66683L10.0001 10.8335L16.6667 6.66683V10.9085C17.2667 11.0085 17.8251 11.2168 18.3334 11.5085V5.00016C18.3334 4.0835 17.5834 3.3335 16.6667 3.3335H3.33341C2.41675 3.3335 1.66675 4.0835 1.66675 5.00016V15.0002C1.66675 15.9168 2.41675 16.6668 3.33341 16.6668H10.9084C10.8667 16.3918 10.8334 16.1168 10.8334 15.8335ZM16.6667 5.00016L10.0001 9.16683L3.33341 5.00016H16.6667ZM16.6667 18.3335V16.6668H13.3334V15.0002H16.6667V13.3335L19.1667 15.8335L16.6667 18.3335Z" fill="#6481AD"/>
</svg>
