<svg xmlns="http://www.w3.org/2000/svg" width="16" height="17" viewBox="0 0 16 17" fill="none">
    <g clip-path="url(#clip0_51_255)">
        <path fill-rule="evenodd" clip-rule="evenodd" d="M10.6668 6.24992C10.6668 6.95716 10.3859 7.63544 9.88578 8.13554C9.38568 8.63563 8.70741 8.91659 8.00016 8.91659C7.29292 8.91659 6.61464 8.63563 6.11454 8.13554C5.61445 7.63544 5.3335 6.95716 5.3335 6.24992C5.3335 5.54267 5.61445 4.8644 6.11454 4.3643C6.61464 3.8642 7.29292 3.58325 8.00016 3.58325C8.70741 3.58325 9.38568 3.8642 9.88578 4.3643C10.3859 4.8644 10.6668 5.54267 10.6668 6.24992ZM9.3335 6.24992C9.3335 6.60354 9.19302 6.94268 8.94297 7.19273C8.69292 7.44278 8.35378 7.58325 8.00016 7.58325C7.64654 7.58325 7.3074 7.44278 7.05735 7.19273C6.80731 6.94268 6.66683 6.60354 6.66683 6.24992C6.66683 5.8963 6.80731 5.55716 7.05735 5.30711C7.3074 5.05706 7.64654 4.91659 8.00016 4.91659C8.35378 4.91659 8.69292 5.05706 8.94297 5.30711C9.19302 5.55716 9.3335 5.8963 9.3335 6.24992Z" fill="#35415A"/>
        <path fill-rule="evenodd" clip-rule="evenodd" d="M8.00008 0.916626C3.95008 0.916626 0.666748 4.19996 0.666748 8.24996C0.666748 12.3 3.95008 15.5833 8.00008 15.5833C12.0501 15.5833 15.3334 12.3 15.3334 8.24996C15.3334 4.19996 12.0501 0.916626 8.00008 0.916626ZM2.00008 8.24996C2.00008 9.64329 2.47541 10.926 3.27208 11.9446C3.83157 11.2099 4.55335 10.6145 5.38104 10.2048C6.20873 9.79521 7.11991 9.58249 8.04341 9.58329C8.95497 9.58243 9.85469 9.78964 10.674 10.1891C11.4934 10.5887 12.2107 11.1699 12.7714 11.8886C13.349 11.131 13.738 10.2468 13.906 9.30902C14.074 8.37127 14.0164 7.40698 13.7377 6.49595C13.4591 5.58492 12.9676 4.75332 12.3037 4.06998C11.6399 3.38664 10.8229 2.8712 9.92034 2.5663C9.01776 2.2614 8.05555 2.17581 7.11332 2.31661C6.1711 2.45741 5.27594 2.82055 4.50193 3.376C3.72791 3.93144 3.09729 4.66321 2.66223 5.51076C2.22718 6.35831 2.0002 7.29727 2.00008 8.24996ZM8.00008 14.25C6.62271 14.252 5.28693 13.7782 4.21875 12.9086C4.6487 12.2931 5.22097 11.7906 5.88688 11.4438C6.55278 11.0969 7.29261 10.9161 8.04341 10.9166C8.78486 10.916 9.51574 11.0923 10.1754 11.4309C10.835 11.7695 11.4043 12.2605 11.8361 12.8633C10.7596 13.7611 9.4018 14.2519 8.00008 14.25Z" fill="#35415A"/>
    </g>
    <defs>
        <clipPath id="clip0_51_255">
            <rect width="16" height="16" fill="white" transform="translate(0 0.25)"/>
        </clipPath>
    </defs>
</svg>
