<svg xmlns="http://www.w3.org/2000/svg" width="9" height="9" viewBox="0 0 9 9" fill="none">
    <path fill-rule="evenodd" clip-rule="evenodd" d="M2.13175 2.13738C2.21614 2.05302 2.33058 2.00563 2.4499 2.00563C2.56923 2.00563 2.68367 2.05302 2.76805 2.13738L4.6999 4.06923L6.63175 2.13738C6.67326 2.0944 6.72292 2.06012 6.77782 2.03653C6.83272 2.01295 6.89177 2.00054 6.95152 2.00002C7.01127 1.9995 7.07053 2.01088 7.12583 2.03351C7.18114 2.05614 7.23138 2.08955 7.27363 2.1318C7.31588 2.17405 7.3493 2.2243 7.37192 2.2796C7.39455 2.3349 7.40594 2.39416 7.40542 2.45391C7.4049 2.51366 7.39248 2.57271 7.3689 2.62761C7.34532 2.68251 7.31103 2.73217 7.26805 2.77368L5.3362 4.70553L7.26805 6.63738C7.35002 6.72225 7.39538 6.83592 7.39436 6.95391C7.39333 7.0719 7.34601 7.18476 7.26257 7.2682C7.17914 7.35163 7.06627 7.39896 6.94828 7.39998C6.8303 7.40101 6.71662 7.35565 6.63175 7.27368L4.6999 5.34183L2.76805 7.27368C2.68318 7.35565 2.56951 7.40101 2.45152 7.39998C2.33353 7.39896 2.22067 7.35163 2.13724 7.2682C2.0538 7.18476 2.00648 7.0719 2.00545 6.95391C2.00443 6.83592 2.04978 6.72225 2.13175 6.63738L4.0636 4.70553L2.13175 2.77368C2.04739 2.68929 2 2.57485 2 2.45553C2 2.33621 2.04739 2.22177 2.13175 2.13738Z" fill="#FF0000"/>
</svg>
