<svg xmlns="http://www.w3.org/2000/svg" width="20" height="20" viewBox="0 0 20 20" fill="none">
    <path d="M7.5 3.33317V2.49984C7.5 2.27882 7.5878 2.06686 7.74408 1.91058C7.90036 1.7543 8.11232 1.6665 8.33333 1.6665H11.6667C11.8877 1.6665 12.0996 1.7543 12.2559 1.91058C12.4122 2.06686 12.5 2.27882 12.5 2.49984V3.33317H15.8333C16.2754 3.33317 16.6993 3.50877 17.0118 3.82133C17.3244 4.13389 17.5 4.55781 17.5 4.99984V5.83317C17.5 6.2752 17.3244 6.69912 17.0118 7.01168C16.6993 7.32424 16.2754 7.49984 15.8333 7.49984H15.7225L15.1558 15.9998C15.1136 16.6326 14.8324 17.2256 14.3693 17.6588C13.9062 18.092 13.2958 18.3331 12.6617 18.3332H7.355C6.7214 18.3332 6.11143 18.0926 5.64842 17.66C5.18542 17.2275 4.90392 16.6353 4.86083 16.0032L4.28083 7.49984H4.16667C3.72464 7.49984 3.30072 7.32424 2.98816 7.01168C2.67559 6.69912 2.5 6.2752 2.5 5.83317V4.99984C2.5 4.55781 2.67559 4.13389 2.98816 3.82133C3.30072 3.50877 3.72464 3.33317 4.16667 3.33317H7.5ZM15.8333 4.99984H4.16667V5.83317H15.8333V4.99984ZM5.95083 7.49984L6.52333 15.8898C6.5377 16.1006 6.63157 16.298 6.78597 16.4422C6.94036 16.5864 7.14375 16.6666 7.355 16.6665H12.6617C12.8732 16.6665 13.0768 16.5861 13.2312 16.4416C13.3857 16.2971 13.4794 16.0992 13.4933 15.8882L14.0517 7.49984H5.95167H5.95083ZM8.33333 8.33317C8.55435 8.33317 8.76631 8.42097 8.92259 8.57725C9.07887 8.73353 9.16667 8.94549 9.16667 9.1665V14.9998C9.16667 15.2209 9.07887 15.4328 8.92259 15.5891C8.76631 15.7454 8.55435 15.8332 8.33333 15.8332C8.11232 15.8332 7.90036 15.7454 7.74408 15.5891C7.5878 15.4328 7.5 15.2209 7.5 14.9998V9.1665C7.5 8.94549 7.5878 8.73353 7.74408 8.57725C7.90036 8.42097 8.11232 8.33317 8.33333 8.33317ZM11.6667 8.33317C11.8877 8.33317 12.0996 8.42097 12.2559 8.57725C12.4122 8.73353 12.5 8.94549 12.5 9.1665V14.9998C12.5 15.2209 12.4122 15.4328 12.2559 15.5891C12.0996 15.7454 11.8877 15.8332 11.6667 15.8332C11.4457 15.8332 11.2337 15.7454 11.0774 15.5891C10.9211 15.4328 10.8333 15.2209 10.8333 14.9998V9.1665C10.8333 8.94549 10.9211 8.73353 11.0774 8.57725C11.2337 8.42097 11.4457 8.33317 11.6667 8.33317Z" fill="#6481AD"/>
</svg>
