<svg width="16" height="16" viewBox="0 0 16 16" fill="none" xmlns="http://www.w3.org/2000/svg">
<path d="M16 12L12.2791 16L9.67442 13.2L10.7907 12L12.2791 13.6L14.8837 10.8L16 12ZM8.18605 13.6C8.18605 12.4 8.55814 11.36 9.22791 10.48L6.69767 8.8V4H7.81395V8.16L10.1209 9.68C10.8651 9.12 11.6837 8.8 12.6512 8.8C13.3953 8.8 14.1395 9.04 14.7349 9.36C14.8093 8.88 14.8837 8.48 14.8837 8C14.8837 3.6 11.5349 0 7.44186 0C3.34884 0 0 3.6 0 8C0 12.4 3.34884 16 7.44186 16C7.88837 16 8.33488 15.92 8.70698 15.84C8.4093 15.2 8.18605 14.4 8.18605 13.6Z" fill="white"/>
</svg>
