<svg xmlns="http://www.w3.org/2000/svg" width="20" height="20" viewBox="0 0 20 20" fill="none">
    <path d="M6.66667 16.6668C6.20833 16.6668 5.81583 16.5035 5.48917 16.1768C5.1625 15.8502 4.99944 15.4579 5 15.0002V12.5002H7.5V10.6252C7.01389 10.5974 6.55194 10.4896 6.11417 10.3018C5.67639 10.1141 5.27722 9.83294 4.91667 9.4585V8.54183H3.95833L1.25 5.8335C1.75 5.19461 2.36806 4.74322 3.10417 4.47933C3.84028 4.21544 4.58333 4.0835 5.33333 4.0835C5.70833 4.0835 6.07306 4.11127 6.4275 4.16683C6.78194 4.22238 7.13944 4.32655 7.5 4.47933V3.3335H17.5V14.1668C17.5 14.8613 17.2569 15.4516 16.7708 15.9377C16.2847 16.4238 15.6944 16.6668 15 16.6668H6.66667ZM9.16667 12.5002H14.1667V14.1668C14.1667 14.4029 14.2467 14.601 14.4067 14.761C14.5667 14.921 14.7644 15.0007 15 15.0002C15.2361 15.0002 15.4342 14.9202 15.5942 14.7602C15.7542 14.6002 15.8339 14.4024 15.8333 14.1668V5.00016H9.16667V5.50016L14.1667 10.5002V11.6668H13L10.625 9.29183L10.4583 9.4585C10.2639 9.65294 10.0589 9.82655 9.84333 9.97933C9.62778 10.1321 9.40222 10.2502 9.16667 10.3335V12.5002ZM4.66667 6.87516H6.58333V8.66683C6.75 8.77794 6.92361 8.85433 7.10417 8.896C7.28472 8.93766 7.47222 8.9585 7.66667 8.9585C7.98611 8.9585 8.27444 8.90988 8.53167 8.81266C8.78889 8.71544 9.04222 8.54183 9.29167 8.29183L9.45833 8.12516L8.29167 6.9585C7.88889 6.55572 7.4375 6.2535 6.9375 6.05183C6.4375 5.85016 5.90278 5.74961 5.33333 5.75016C5.05556 5.75016 4.79167 5.771 4.54167 5.81266C4.29167 5.85433 4.04167 5.91683 3.79167 6.00016L4.66667 6.87516Z" fill="white"/>
</svg>
