<svg xmlns="http://www.w3.org/2000/svg" width="20" height="20" viewBox="0 0 20 20" fill="none">
    <path d="M10.0097 1.875C10.6214 1.88167 11.2305 1.9525 11.828 2.08583C11.9551 2.11421 12.0702 2.18159 12.1572 2.27855C12.2441 2.37552 12.2986 2.49722 12.313 2.62667L12.4547 3.89917C12.4747 4.07857 12.5365 4.25077 12.6352 4.40192C12.7339 4.55307 12.8667 4.67894 13.0229 4.76941C13.1791 4.85987 13.3544 4.91241 13.5346 4.92279C13.7148 4.93317 13.895 4.9011 14.0605 4.82917L15.2272 4.31667C15.3457 4.26446 15.4776 4.25037 15.6045 4.27634C15.7313 4.30232 15.847 4.36708 15.9355 4.46167C16.7791 5.36251 17.4073 6.44294 17.773 7.62167C17.8113 7.74561 17.81 7.87839 17.7694 8.00157C17.7287 8.12476 17.6508 8.23226 17.5464 8.30917L16.5122 9.0725C16.3665 9.17931 16.248 9.31894 16.1663 9.48008C16.0846 9.64122 16.0421 9.81934 16.0421 10C16.0421 10.1807 16.0846 10.3588 16.1663 10.5199C16.248 10.6811 16.3665 10.8207 16.5122 10.9275L17.548 11.69C17.6526 11.767 17.7307 11.8746 17.7713 11.998C17.8119 12.1213 17.8131 12.2543 17.7747 12.3783C17.4091 13.5569 16.7812 14.6373 15.938 15.5383C15.8497 15.6329 15.7342 15.6977 15.6075 15.7238C15.4808 15.7499 15.349 15.7361 15.2305 15.6842L14.0589 15.17C13.8935 15.0975 13.7134 15.065 13.5332 15.075C13.3529 15.085 13.1776 15.1373 13.0213 15.2277C12.865 15.3181 12.7322 15.444 12.6336 15.5953C12.535 15.7465 12.4735 15.9189 12.4539 16.0983L12.3122 17.37C12.298 17.4979 12.2448 17.6184 12.1596 17.7149C12.0744 17.8114 11.9615 17.8792 11.8364 17.9092C10.6293 18.1963 9.37173 18.1963 8.16469 17.9092C8.03936 17.8794 7.92629 17.8116 7.84097 17.7151C7.75564 17.6186 7.70222 17.498 7.68802 17.37L7.54719 16.1C7.52673 15.9211 7.46461 15.7495 7.3658 15.5989C7.267 15.4484 7.13427 15.3231 6.97827 15.2331C6.82227 15.1432 6.64735 15.0911 6.46756 15.081C6.28777 15.0709 6.10811 15.1031 5.94302 15.175L4.77136 15.6883C4.65274 15.7404 4.52086 15.7544 4.39396 15.7283C4.26706 15.7021 4.15141 15.6372 4.06302 15.5425C3.21975 14.6404 2.59206 13.5589 2.22719 12.3792C2.18877 12.2551 2.18995 12.1222 2.23058 11.9988C2.2712 11.8754 2.34924 11.7678 2.45386 11.6908L3.48969 10.9275C3.6354 10.8207 3.75389 10.6811 3.83557 10.5199C3.91724 10.3588 3.95981 10.1807 3.95981 10C3.95981 9.81934 3.91724 9.64122 3.83557 9.48008C3.75389 9.31894 3.6354 9.17931 3.48969 9.0725L2.45386 8.31083C2.34924 8.23387 2.2712 8.12623 2.23058 8.00287C2.18995 7.87951 2.18877 7.74656 2.22719 7.6225C2.59287 6.44378 3.22113 5.36334 4.06469 4.4625C4.15318 4.36791 4.26887 4.30315 4.39576 4.27718C4.52266 4.2512 4.65449 4.26529 4.77302 4.3175L5.93969 4.83C6.10554 4.90189 6.28594 4.93388 6.4664 4.92341C6.64685 4.91293 6.82234 4.86027 6.97875 4.76966C7.13516 4.67906 7.26815 4.55303 7.36701 4.4017C7.46588 4.25037 7.52788 4.07797 7.54802 3.89833L7.68969 2.62667C7.70399 2.49696 7.75853 2.37499 7.84566 2.27785C7.93279 2.1807 8.04813 2.11327 8.17552 2.085C8.77802 1.95184 9.39269 1.88147 10.0097 1.875ZM10.0097 3.125C9.63168 3.12944 9.25453 3.16203 8.88136 3.2225L8.78969 4.03667C8.748 4.41109 8.61894 4.77048 8.41289 5.08587C8.20685 5.40127 7.9296 5.66385 7.60347 5.85245C7.27735 6.04106 6.91148 6.15041 6.53535 6.17169C6.15922 6.19298 5.78334 6.12561 5.43802 5.975L4.68886 5.64667C4.21256 6.22491 3.83344 6.87674 3.56636 7.57667L4.23052 8.06583C4.53409 8.28882 4.78092 8.58011 4.95108 8.91615C5.12123 9.25219 5.20994 9.62354 5.21002 10.0002C5.2101 10.3769 5.12156 10.7483 4.95154 11.0844C4.78153 11.4205 4.53482 11.7119 4.23136 11.935L3.56552 12.425C3.83219 13.1267 4.21219 13.78 4.68886 14.36L5.44302 14.0292C5.7876 13.8787 6.16269 13.8113 6.53809 13.8323C6.91349 13.8533 7.27871 13.9621 7.60437 14.15C7.93003 14.3379 8.20702 14.5997 8.41304 14.9142C8.61906 15.2287 8.74836 15.5872 8.79052 15.9608L8.88136 16.7808C9.62302 16.9058 10.3805 16.9058 11.1214 16.7808L11.213 15.9608C11.2545 15.5867 11.3834 15.2276 11.5892 14.9125C11.795 14.5974 12.0721 14.3351 12.398 14.1468C12.7238 13.9584 13.0894 13.8494 13.4652 13.8284C13.841 13.8074 14.2165 13.875 14.5614 14.0258L15.3147 14.3558C15.7914 13.7771 16.1708 13.1247 16.438 12.4242L15.773 11.9342C15.4693 11.7113 15.2223 11.42 15.0521 11.084C14.8818 10.7479 14.793 10.3765 14.793 9.99979C14.7929 9.62307 14.8815 9.25162 15.0516 8.9155C15.2217 8.57937 15.4686 8.28801 15.7722 8.065L16.4364 7.57583C16.1691 6.87556 15.7897 6.22343 15.313 5.645L14.5655 5.9725C14.2203 6.12362 13.8444 6.19145 13.4682 6.17051C13.0919 6.14957 12.7258 6.04044 12.3995 5.85194C12.0732 5.66345 11.7958 5.40086 11.5897 5.08538C11.3836 4.7699 11.2546 4.41037 11.213 4.03583L11.1222 3.2225C10.7546 3.16241 10.3822 3.12982 10.0097 3.125ZM9.99969 6.875C10.8285 6.875 11.6233 7.20424 12.2094 7.79029C12.7955 8.37634 13.1247 9.1712 13.1247 10C13.1247 10.8288 12.7955 11.6237 12.2094 12.2097C11.6233 12.7958 10.8285 13.125 9.99969 13.125C9.17089 13.125 8.37603 12.7958 7.78998 12.2097C7.20393 11.6237 6.87469 10.8288 6.87469 10C6.87469 9.1712 7.20393 8.37634 7.78998 7.79029C8.37603 7.20424 9.17089 6.875 9.99969 6.875ZM9.99969 8.125C9.50241 8.125 9.0255 8.32254 8.67387 8.67417C8.32224 9.02581 8.12469 9.50272 8.12469 10C8.12469 10.4973 8.32224 10.9742 8.67387 11.3258C9.0255 11.6775 9.50241 11.875 9.99969 11.875C10.497 11.875 10.9739 11.6775 11.3255 11.3258C11.6771 10.9742 11.8747 10.4973 11.8747 10C11.8747 9.50272 11.6771 9.02581 11.3255 8.67417C10.9739 8.32254 10.497 8.125 9.99969 8.125Z" fill="white"/>
</svg>
