<svg xmlns="http://www.w3.org/2000/svg" width="20" height="20" viewBox="0 0 20 20" fill="none">
    <path d="M4.71329 17.066C4.59364 17.17 4.44679 17.2378 4.28999 17.2613C4.13318 17.2848 3.97292 17.2631 3.82803 17.1987C3.68314 17.1343 3.55963 17.0299 3.47199 16.8977C3.38436 16.7656 3.33624 16.6112 3.33329 16.4527V14.5835C2.89127 14.5835 2.46734 14.4079 2.15478 14.0953C1.84222 13.7828 1.66663 13.3589 1.66663 12.9168V7.0835C1.66663 6.64147 1.84222 6.21755 2.15478 5.90498C2.46734 5.59242 2.89127 5.41683 3.33329 5.41683H12.5C12.942 5.41683 13.3659 5.59242 13.6785 5.90498C13.991 6.21755 14.1666 6.64147 14.1666 7.0835V12.9168C14.1666 13.3589 13.991 13.7828 13.6785 14.0953C13.3659 14.4079 12.942 14.5835 12.5 14.5835H8.33579L4.71329 17.066ZM5.41663 14.4885C5.49256 14.4881 5.56713 14.4683 5.63329 14.431L7.59579 13.066C7.73546 12.9689 7.90151 12.9168 8.07163 12.9168H11.6666C11.8876 12.9168 12.0996 12.829 12.2559 12.6728C12.4122 12.5165 12.5 12.3045 12.5 12.0835V7.91683C12.5 7.69582 12.4122 7.48385 12.2559 7.32757C12.0996 7.17129 11.8876 7.0835 11.6666 7.0835H4.16663C3.94561 7.0835 3.73365 7.17129 3.57737 7.32757C3.42109 7.48385 3.33329 7.69582 3.33329 7.91683V12.0835C3.33329 12.5335 3.69079 12.9018 4.16663 12.9168C4.50829 12.9302 4.75579 12.986 4.86996 13.1052C4.97663 13.2168 4.98246 13.4052 4.99996 13.7635C5.00246 13.816 5.00246 13.911 4.99996 14.0718C4.99996 14.1823 5.04386 14.2883 5.122 14.3665C5.20014 14.4446 5.30612 14.4885 5.41663 14.4885ZM15 10.4302C14.9973 10.5329 14.9973 10.6357 15 10.7385V10.4302C15.0166 10.0718 15.0233 9.8835 15.13 9.77183C15.2441 9.65266 15.4916 9.59683 15.8333 9.5835C16.3091 9.5685 16.6666 9.20016 16.6666 8.75016V4.5835C16.6666 4.36248 16.5788 4.15052 16.4225 3.99424C16.2663 3.83796 16.0543 3.75016 15.8333 3.75016H8.33329C8.11228 3.75016 7.90032 3.83796 7.74404 3.99424C7.58776 4.15052 7.49996 4.36248 7.49996 4.5835H5.83329V3.75016C5.83329 3.30814 6.00889 2.88421 6.32145 2.57165C6.63401 2.25909 7.05793 2.0835 7.49996 2.0835H16.6666C17.1087 2.0835 17.5326 2.25909 17.8451 2.57165C18.1577 2.88421 18.3333 3.30814 18.3333 3.75016V9.5835C18.3333 10.0255 18.1577 10.4494 17.8451 10.762C17.5326 11.0746 17.1087 11.2502 16.6666 11.2502V13.1193C16.6637 13.2779 16.6156 13.4323 16.5279 13.5644C16.4403 13.6965 16.3168 13.8009 16.1719 13.8653C16.027 13.9297 15.8667 13.9515 15.7099 13.928C15.5531 13.9045 15.4063 13.8367 15.2866 13.7327L15 13.536V10.431V10.4302Z" fill="white"/>
</svg>
