<svg xmlns="http://www.w3.org/2000/svg" width="15" height="15" viewBox="0 0 15 15" fill="none">
    <path d="M3.75 8.25C3.55109 8.25 3.36032 8.17098 3.21967 8.03033C3.07902 7.88968 3 7.69891 3 7.5C3 7.30109 3.07902 7.11032 3.21967 6.96967C3.36032 6.82902 3.55109 6.75 3.75 6.75H11.25C11.4489 6.75 11.6397 6.82902 11.7803 6.96967C11.921 7.11032 12 7.30109 12 7.5C12 7.69891 11.921 7.88968 11.7803 8.03033C11.6397 8.17098 11.4489 8.25 11.25 8.25H3.75Z" fill="#fff"/>
    <path d="M6.75 3.75C6.75 3.55109 6.82902 3.36032 6.96967 3.21967C7.11032 3.07902 7.30109 3 7.5 3C7.69891 3 7.88968 3.07902 8.03033 3.21967C8.17098 3.36032 8.25 3.55109 8.25 3.75V11.25C8.25 11.4489 8.17098 11.6397 8.03033 11.7803C7.88968 11.921 7.69891 12 7.5 12C7.30109 12 7.11032 11.921 6.96967 11.7803C6.82902 11.6397 6.75 11.4489 6.75 11.25V3.75Z" fill="#fff"/>
</svg>
