<svg xmlns="http://www.w3.org/2000/svg" width="20" height="20" viewBox="0 0 20 20" fill="none">
    <g clip-path="url(#clip0_695_2024)">
        <path d="M1.25 10C1.25 10.9701 1.39974 11.8978 1.69922 12.7832C1.9987 13.6686 2.42513 14.4824 2.97852 15.2246C3.5319 15.9668 4.19271 16.6081 4.96094 17.1484C5.72917 17.6888 6.57552 18.099 7.5 18.3789V19.668C6.39974 19.3815 5.39062 18.9323 4.47266 18.3203C3.55469 17.7083 2.76367 16.9727 2.09961 16.1133C1.43555 15.2539 0.921224 14.3066 0.556641 13.2715C0.192057 12.2363 0.00651042 11.1458 0 10C0 9.08203 0.117188 8.19661 0.351562 7.34375C0.585938 6.49089 0.924479 5.69661 1.36719 4.96094C1.8099 4.22526 2.33073 3.55143 2.92969 2.93945C3.52865 2.32747 4.20247 1.80339 4.95117 1.36719C5.69987 0.93099 6.4974 0.595703 7.34375 0.361328C8.1901 0.126953 9.07552 0.00651042 10 0C10.8789 0 11.7253 0.107422 12.5391 0.322266C13.3529 0.537109 14.1211 0.846354 14.8438 1.25C15.5664 1.65365 16.2272 2.13867 16.8262 2.70508C17.4251 3.27148 17.9492 3.89974 18.3984 4.58984C18.8477 5.27995 19.2057 6.02865 19.4727 6.83594C19.7396 7.64323 19.9056 8.47982 19.9707 9.3457L18.4668 7.8418C18.2194 6.87826 17.8288 5.99284 17.2949 5.18555C16.7611 4.37826 16.1165 3.68164 15.3613 3.0957C14.6061 2.50977 13.776 2.05729 12.8711 1.73828C11.9661 1.41927 11.0091 1.25651 10 1.25C9.19271 1.25 8.41797 1.35417 7.67578 1.5625C6.93359 1.77083 6.24023 2.0638 5.5957 2.44141C4.95117 2.81901 4.35872 3.27799 3.81836 3.81836C3.27799 4.35872 2.82227 4.94792 2.45117 5.58594C2.08008 6.22396 1.78385 6.92057 1.5625 7.67578C1.34115 8.43099 1.23698 9.20573 1.25 10ZM10 5C9.3099 5 8.66211 5.13021 8.05664 5.39062C7.45117 5.65104 6.92383 6.00911 6.47461 6.46484C6.02539 6.92057 5.66732 7.45117 5.40039 8.05664C5.13346 8.66211 5 9.3099 5 10C5 10.6706 5.1237 11.3086 5.37109 11.9141C5.61849 12.5195 5.98307 13.0599 6.46484 13.5352L5.57617 14.4238C4.98372 13.8314 4.53125 13.1543 4.21875 12.3926C3.90625 11.6309 3.75 10.8333 3.75 10C3.75 9.42708 3.82487 8.8737 3.97461 8.33984C4.12435 7.80599 4.33268 7.30794 4.59961 6.8457C4.86654 6.38346 5.19206 5.96354 5.57617 5.58594C5.96029 5.20833 6.38346 4.88281 6.8457 4.60938C7.30794 4.33594 7.80599 4.12435 8.33984 3.97461C8.8737 3.82487 9.42708 3.75 10 3.75C10.4883 3.75 10.9668 3.80534 11.4355 3.91602C11.9043 4.02669 12.3503 4.19271 12.7734 4.41406C13.1966 4.63542 13.597 4.89583 13.9746 5.19531C14.3522 5.49479 14.6842 5.84635 14.9707 6.25H13.2715C12.8158 5.84635 12.3112 5.53711 11.7578 5.32227C11.2044 5.10742 10.6185 5 10 5ZM15.8887 7.5L20 11.6113V20H8.75V7.5H15.8887ZM16.25 9.63867V11.25H17.8613L16.25 9.63867ZM18.75 18.75V12.5H15V8.75H10V18.75H18.75ZM17.5 13.75V17.5H16.25V13.75H17.5ZM11.25 17.5V12.5H12.5V17.5H11.25ZM13.75 17.5V15H15V17.5H13.75Z" fill="white"/>
    </g>
    <defs>
        <clipPath id="clip0_695_2024">
            <rect width="20" height="20" fill="white"/>
        </clipPath>
    </defs>
</svg>
